<?xml version="1.0" encoding="utf-8"?>
<!-- Generator: Adobe Illustrator 22.0.1, SVG Export Plug-In . SVG Version: 6.00 Build 0)  -->
<svg version="1.1" id="Layer_1" xmlns="http://www.w3.org/2000/svg" xmlns:xlink="http://www.w3.org/1999/xlink" x="0px" y="0px"
	 viewBox="0 0 360 144" style="enable-background:new 0 0 360 144;" xml:space="preserve">
<style type="text/css">
	.st0{fill:#FFFFFF;}
</style>
<path class="st0" d="M147.2,72.3c0-20.8-16.8-37.6-37.6-37.6C88.9,34.7,72,51.6,72,72.3c0,20.8,16.8,37.6,37.6,37.6
	c10.3,0,19.6-4.1,26.4-10.8v29.4h11.2v-56h0C147.2,72.5,147.2,72.4,147.2,72.3z M109.6,98.6c-14.5,0-26.3-11.8-26.3-26.3
	c0-14.5,11.8-26.3,26.3-26.3c14.5,0,26.3,11.8,26.3,26.3C135.9,86.9,124.2,98.6,109.6,98.6z"/>
<path class="st0" d="M339.5,15.2h-11.2v30.4c-6.8-6.7-16.1-10.8-26.4-10.8c-20.8,0-37.6,16.8-37.6,37.6c0,20.8,16.8,37.6,37.6,37.6
	c20.7,0,37.5-16.7,37.6-37.3h0V15.2z M301.9,98.6c-14.5,0-26.3-11.8-26.3-26.3c0-14.5,11.8-26.3,26.3-26.3
	c14.5,0,26.3,11.8,26.3,26.3C328.2,86.9,316.4,98.6,301.9,98.6z"/>
<rect x="243.2" y="34.7" class="st0" width="11.2" height="75.2"/>
<rect x="51.5" y="34.7" class="st0" width="11.2" height="75.2"/>
<path class="st0" d="M232.1,34.7h-11.3v37.6c0,14.5-11.8,26.3-26.3,26.3c-14.5,0-26.3-11.8-26.3-26.3V34.7h-11.3v37.6
	c0,20.8,16.8,37.6,37.6,37.6c20.8,0,37.6-16.8,37.6-37.6"/>
<rect x="20.5" y="15.1" class="st0" width="12.2" height="94.8"/>
</svg>
